<svg width="512" height="512" viewBox="0 0 512 512" fill="none" xmlns="http://www.w3.org/2000/svg">
<rect width="512" height="512" fill="white"/>
<path d="M390.305 146.187H231.646V196.411H246.238L246.855 188.177L247.124 186.672C247.9 182.344 249.261 178.141 251.17 174.18L252.652 171.636C253.575 170.052 254.774 168.645 256.192 167.483C257.761 166.197 259.569 165.235 261.512 164.651L263.306 164.112C265.616 163.418 268.015 163.065 270.427 163.065H291.246V330.615L290.929 332.915C290.596 335.333 289.744 337.65 288.429 339.706L287.939 340.474C287.406 341.307 286.758 342.061 286.014 342.714C284.596 343.956 282.869 344.794 281.015 345.138L279.69 345.383C278.764 345.555 277.825 345.641 276.883 345.641H266.79V362.932H361.327V345.641H347.846C345.885 345.641 343.935 345.335 342.068 344.734L341.038 344.403C339.775 343.996 338.587 343.387 337.52 342.599C336.011 341.486 334.778 340.041 333.916 338.376L333.573 337.712C332.763 336.149 332.227 334.458 331.986 332.714L331.527 329.38V163.065H353.222C355.73 163.065 358.22 163.492 360.584 164.328L361.374 164.607C363.112 165.222 364.739 166.115 366.19 167.253C367.866 168.566 369.279 170.183 370.357 172.018L371.239 173.519C372.3 175.326 373.14 177.253 373.741 179.26L374.292 181.101C374.965 183.344 375.448 185.64 375.738 187.965L376.741 195.999H390.922L390.305 146.187Z" fill="#F2C05F"/>
<path d="M214.588 161.624V145.158H120.051V161.624L132.587 162.242L134.848 162.59C136.884 162.904 138.839 163.611 140.604 164.672L140.944 164.876C141.674 165.314 142.354 165.828 142.976 166.409C144.387 167.728 145.462 169.367 146.111 171.187L146.324 171.783C146.89 173.37 147.179 175.041 147.179 176.725V331.85L145.768 336.875C145.478 337.91 145.019 338.889 144.411 339.775C143.529 341.06 142.353 342.117 140.981 342.857L139.827 343.479C138.434 344.23 136.933 344.759 135.377 345.048L134.227 345.261C132.863 345.514 131.478 345.641 130.091 345.641H119.845V362.932H214.999V345.641H203.591C202.567 345.641 201.544 345.559 200.532 345.396L198.32 345.039C196.589 344.759 194.955 344.047 193.572 342.969C192.521 342.151 191.637 341.139 190.967 339.989L190.543 339.26L189.104 335.967L188.488 332.674V178.451C188.488 176.574 188.753 174.706 189.276 172.903L189.727 171.347C190.13 169.955 190.794 168.652 191.683 167.508C192.692 166.208 193.97 165.141 195.428 164.379L195.899 164.133C197.251 163.426 198.711 162.947 200.22 162.714L203.285 162.242L214.588 161.624Z" fill="#F2C05F"/>
<path d="M182.939 127.044H201.435L246.649 80.5252L247.198 80.0486C248.864 78.6028 250.847 77.5701 252.986 77.0344L253.269 76.9637C254.195 76.7317 255.147 76.6143 256.103 76.6143C257.058 76.6143 258.01 76.7317 258.937 76.9637L259.388 77.0766C261.424 77.5864 263.334 78.506 265.003 79.7793L265.629 80.2572C266.402 80.8467 267.129 81.4938 267.803 82.193L278.71 93.4928L310.976 127.044H330.089L274.084 69.763C272.648 68.2949 271.103 66.9383 269.461 65.705L268.119 64.958C266.553 64.0866 264.892 63.3977 263.169 62.9047C261.072 62.3045 258.873 62 256.691 62C254.546 62 252.383 62.2896 250.315 62.8609L250.06 62.9314C248.339 63.407 246.671 64.06 245.085 64.8801L245.007 64.9205C242.42 66.2578 240.07 68.0103 238.05 70.1082L230.002 78.4668L182.939 127.044Z" fill="#F2C05F"/>
<path d="M121.284 211.437V192.706L72.4729 241.592C71.1768 242.891 70.0447 244.343 69.1019 245.916L69.0054 246.077C67.9663 247.812 67.1813 249.687 66.6746 251.644C66.2267 253.375 66 255.155 66 256.942V259.097C66 260.801 66.1891 262.499 66.5638 264.161C67.1427 266.729 68.1577 269.178 69.5645 271.403L70.0495 272.17C70.9106 273.532 71.8864 274.817 72.9663 276.013L75.2482 278.539L121.284 324.646V306.327L84.1662 268.558C83.1588 267.533 82.3083 266.365 81.6423 265.091L81.5917 264.995C80.7948 263.471 80.2852 261.814 80.0884 260.105C79.8779 258.278 80.0293 256.428 80.5338 254.659L80.5995 254.429C81.1372 252.544 82.0343 250.78 83.2413 249.236L85.113 246.84L121.284 211.437Z" fill="#F2C05F"/>
<path d="M198.764 380.633H179.856L238.223 441.767L240.697 443.749C243.14 445.707 245.897 447.238 248.85 448.277L249.524 448.514C251.164 449.091 252.867 449.47 254.597 449.643C256.955 449.88 259.336 449.73 261.647 449.201L262.848 448.926C264.511 448.546 266.122 447.967 267.647 447.204C269.396 446.328 271.017 445.215 272.464 443.898L274.805 441.767L286.519 429.416L333.377 380.839H314.675L266.379 430.857L264.283 432.656C263.763 433.103 263.201 433.497 262.604 433.833C261.036 434.716 259.268 435.18 257.469 435.18H257.107C255.629 435.18 254.163 434.903 252.786 434.363L252.251 434.154C250.854 433.606 249.547 432.85 248.376 431.911L247.06 430.857L198.764 380.633Z" fill="#F2C05F"/>
<path d="M383.523 332.88V314.149L428.459 267.943C429.326 267.051 430.079 266.056 430.701 264.98C431.577 263.465 432.182 261.808 432.489 260.086L432.615 259.381C432.904 257.759 432.88 256.098 432.545 254.485C432.202 252.835 431.538 251.268 430.593 249.873L429.419 248.139C428.555 246.865 427.568 245.678 426.472 244.596L399.553 218.023V198.469L439.012 239.842C441.452 242.557 443.307 245.746 444.46 249.21L444.581 249.574C445.521 252.399 446 255.356 446 258.333V258.941C446 261.425 445.612 263.894 444.851 266.258C444.249 268.126 443.419 269.912 442.381 271.577L442.282 271.736C441.338 273.248 440.237 274.657 438.998 275.939L409.624 306.327L383.523 332.88Z" fill="#F2C05F"/>
</svg>
